<mxfile host="app.diagrams.net" modified="2023-10-08T13:27:20.803Z" agent="Mozilla/5.0 (Windows NT 10.0; Win64; x64) AppleWebKit/537.36 (KHTML, like Gecko) Chrome/117.0.0.0 Safari/537.36" etag="gjllMgcv9WSyX_HlDllH" version="22.0.4" type="device">
  <diagram name="Страница — 1" id="0Fefii48k-gNB0Z1-E_T">
    <mxGraphModel dx="2670" dy="869" grid="0" gridSize="10" guides="1" tooltips="1" connect="1" arrows="1" fold="1" page="1" pageScale="1" pageWidth="827" pageHeight="1169" math="0" shadow="0">
      <root>
        <mxCell id="0" />
        <mxCell id="1" parent="0" />
        <mxCell id="KGBhsJpn1gBrKjEB66vK-1" value="Unregistered user" style="shape=umlActor;verticalLabelPosition=bottom;verticalAlign=top;html=1;outlineConnect=0;" vertex="1" parent="1">
          <mxGeometry x="-122" y="169" width="30" height="60" as="geometry" />
        </mxCell>
        <mxCell id="KGBhsJpn1gBrKjEB66vK-2" value="Administrator" style="shape=umlActor;verticalLabelPosition=bottom;verticalAlign=top;html=1;outlineConnect=0;" vertex="1" parent="1">
          <mxGeometry x="948" y="886" width="30" height="60" as="geometry" />
        </mxCell>
        <mxCell id="KGBhsJpn1gBrKjEB66vK-3" value="Registered user" style="shape=umlActor;verticalLabelPosition=bottom;verticalAlign=top;html=1;outlineConnect=0;" vertex="1" parent="1">
          <mxGeometry x="948" y="447" width="30" height="60" as="geometry" />
        </mxCell>
        <mxCell id="KGBhsJpn1gBrKjEB66vK-6" value="Просмотр рецептов" style="ellipse;whiteSpace=wrap;html=1;" vertex="1" parent="1">
          <mxGeometry x="6" y="143" width="120" height="48.5" as="geometry" />
        </mxCell>
        <mxCell id="KGBhsJpn1gBrKjEB66vK-7" value="Просмотр комментариев" style="ellipse;whiteSpace=wrap;html=1;" vertex="1" parent="1">
          <mxGeometry x="232" y="174.5" width="120" height="48.5" as="geometry" />
        </mxCell>
        <mxCell id="KGBhsJpn1gBrKjEB66vK-10" value="" style="endArrow=blockThin;dashed=1;html=1;rounded=0;entryX=0;entryY=0.5;entryDx=0;entryDy=0;exitX=1;exitY=0.5;exitDx=0;exitDy=0;endFill=1;" edge="1" parent="1" source="KGBhsJpn1gBrKjEB66vK-6" target="KGBhsJpn1gBrKjEB66vK-7">
          <mxGeometry width="50" height="50" relative="1" as="geometry">
            <mxPoint x="151" y="349" as="sourcePoint" />
            <mxPoint x="201" y="299" as="targetPoint" />
          </mxGeometry>
        </mxCell>
        <mxCell id="KGBhsJpn1gBrKjEB66vK-11" value="include" style="edgeLabel;html=1;align=center;verticalAlign=middle;resizable=0;points=[];rotation=15;" vertex="1" connectable="0" parent="KGBhsJpn1gBrKjEB66vK-10">
          <mxGeometry x="0.4468" y="3" relative="1" as="geometry">
            <mxPoint x="-18" y="-9" as="offset" />
          </mxGeometry>
        </mxCell>
        <mxCell id="KGBhsJpn1gBrKjEB66vK-12" value="Вход в систему" style="ellipse;whiteSpace=wrap;html=1;" vertex="1" parent="1">
          <mxGeometry x="744" y="324" width="120" height="38" as="geometry" />
        </mxCell>
        <mxCell id="KGBhsJpn1gBrKjEB66vK-14" value="" style="endArrow=none;html=1;rounded=0;" edge="1" parent="1" source="KGBhsJpn1gBrKjEB66vK-3" target="KGBhsJpn1gBrKjEB66vK-12">
          <mxGeometry width="50" height="50" relative="1" as="geometry">
            <mxPoint x="740" y="471" as="sourcePoint" />
            <mxPoint x="790" y="421" as="targetPoint" />
          </mxGeometry>
        </mxCell>
        <mxCell id="KGBhsJpn1gBrKjEB66vK-15" value="Настройка фильтров по предпочтениям" style="ellipse;whiteSpace=wrap;html=1;" vertex="1" parent="1">
          <mxGeometry x="145" y="226" width="127" height="51" as="geometry" />
        </mxCell>
        <mxCell id="KGBhsJpn1gBrKjEB66vK-17" value="" style="endArrow=none;dashed=1;html=1;rounded=0;startArrow=blockThin;startFill=1;" edge="1" parent="1" source="KGBhsJpn1gBrKjEB66vK-15" target="KGBhsJpn1gBrKjEB66vK-6">
          <mxGeometry width="50" height="50" relative="1" as="geometry">
            <mxPoint x="212" y="458" as="sourcePoint" />
            <mxPoint x="262" y="408" as="targetPoint" />
          </mxGeometry>
        </mxCell>
        <mxCell id="KGBhsJpn1gBrKjEB66vK-18" value="include" style="edgeLabel;html=1;align=center;verticalAlign=middle;resizable=0;points=[];rotation=30;" vertex="1" connectable="0" parent="KGBhsJpn1gBrKjEB66vK-17">
          <mxGeometry x="0.0522" relative="1" as="geometry">
            <mxPoint x="8" y="-4" as="offset" />
          </mxGeometry>
        </mxCell>
        <mxCell id="KGBhsJpn1gBrKjEB66vK-19" value="Регистрация" style="ellipse;whiteSpace=wrap;html=1;" vertex="1" parent="1">
          <mxGeometry x="-12" y="239" width="120" height="30" as="geometry" />
        </mxCell>
        <mxCell id="KGBhsJpn1gBrKjEB66vK-20" value="" style="endArrow=none;html=1;rounded=0;" edge="1" parent="1" source="KGBhsJpn1gBrKjEB66vK-1" target="KGBhsJpn1gBrKjEB66vK-6">
          <mxGeometry width="50" height="50" relative="1" as="geometry">
            <mxPoint x="65" y="358" as="sourcePoint" />
            <mxPoint x="115" y="308" as="targetPoint" />
          </mxGeometry>
        </mxCell>
        <mxCell id="KGBhsJpn1gBrKjEB66vK-21" value="" style="endArrow=none;html=1;rounded=0;" edge="1" parent="1" source="KGBhsJpn1gBrKjEB66vK-1" target="KGBhsJpn1gBrKjEB66vK-19">
          <mxGeometry width="50" height="50" relative="1" as="geometry">
            <mxPoint x="65" y="358" as="sourcePoint" />
            <mxPoint x="115" y="308" as="targetPoint" />
          </mxGeometry>
        </mxCell>
        <mxCell id="KGBhsJpn1gBrKjEB66vK-22" value="Создать ФИО" style="ellipse;whiteSpace=wrap;html=1;" vertex="1" parent="1">
          <mxGeometry x="132" y="302" width="120" height="33" as="geometry" />
        </mxCell>
        <mxCell id="KGBhsJpn1gBrKjEB66vK-23" value="" style="endArrow=none;dashed=1;html=1;rounded=0;entryX=1;entryY=1;entryDx=0;entryDy=0;endFill=0;startArrow=blockThin;startFill=1;" edge="1" parent="1" source="KGBhsJpn1gBrKjEB66vK-22" target="KGBhsJpn1gBrKjEB66vK-19">
          <mxGeometry width="50" height="50" relative="1" as="geometry">
            <mxPoint x="65" y="358" as="sourcePoint" />
            <mxPoint x="115" y="308" as="targetPoint" />
          </mxGeometry>
        </mxCell>
        <mxCell id="KGBhsJpn1gBrKjEB66vK-24" value="include" style="edgeLabel;html=1;align=center;verticalAlign=middle;resizable=0;points=[];rotation=30;" vertex="1" connectable="0" parent="KGBhsJpn1gBrKjEB66vK-23">
          <mxGeometry x="-0.1581" relative="1" as="geometry">
            <mxPoint x="4" y="-11" as="offset" />
          </mxGeometry>
        </mxCell>
        <mxCell id="KGBhsJpn1gBrKjEB66vK-25" value="Создать логин и пароль" style="ellipse;whiteSpace=wrap;html=1;" vertex="1" parent="1">
          <mxGeometry x="-45" y="317" width="120" height="46" as="geometry" />
        </mxCell>
        <mxCell id="KGBhsJpn1gBrKjEB66vK-26" value="" style="endArrow=none;dashed=1;html=1;rounded=0;startArrow=blockThin;startFill=1;" edge="1" parent="1" source="KGBhsJpn1gBrKjEB66vK-25" target="KGBhsJpn1gBrKjEB66vK-19">
          <mxGeometry width="50" height="50" relative="1" as="geometry">
            <mxPoint x="65" y="358" as="sourcePoint" />
            <mxPoint x="115" y="308" as="targetPoint" />
          </mxGeometry>
        </mxCell>
        <mxCell id="KGBhsJpn1gBrKjEB66vK-27" value="include" style="edgeLabel;html=1;align=center;verticalAlign=middle;resizable=0;points=[];rotation=-75;" vertex="1" connectable="0" parent="KGBhsJpn1gBrKjEB66vK-26">
          <mxGeometry x="0.2022" y="1" relative="1" as="geometry">
            <mxPoint x="-14" y="5" as="offset" />
          </mxGeometry>
        </mxCell>
        <mxCell id="KGBhsJpn1gBrKjEB66vK-28" value="Выбор &lt;br&gt;предпочтений" style="ellipse;whiteSpace=wrap;html=1;" vertex="1" parent="1">
          <mxGeometry x="85" y="352" width="110" height="43" as="geometry" />
        </mxCell>
        <mxCell id="KGBhsJpn1gBrKjEB66vK-29" value="" style="endArrow=blockThin;dashed=1;html=1;rounded=0;endFill=1;" edge="1" parent="1" source="KGBhsJpn1gBrKjEB66vK-19" target="KGBhsJpn1gBrKjEB66vK-28">
          <mxGeometry width="50" height="50" relative="1" as="geometry">
            <mxPoint x="65" y="358" as="sourcePoint" />
            <mxPoint x="115" y="308" as="targetPoint" />
          </mxGeometry>
        </mxCell>
        <mxCell id="KGBhsJpn1gBrKjEB66vK-30" value="include" style="edgeLabel;html=1;align=center;verticalAlign=middle;resizable=0;points=[];rotation=60;" vertex="1" connectable="0" parent="KGBhsJpn1gBrKjEB66vK-29">
          <mxGeometry x="0.0944" relative="1" as="geometry">
            <mxPoint x="10" y="-9" as="offset" />
          </mxGeometry>
        </mxCell>
        <mxCell id="KGBhsJpn1gBrKjEB66vK-31" value="Ввод логина и пароля" style="ellipse;whiteSpace=wrap;html=1;" vertex="1" parent="1">
          <mxGeometry x="729" y="208" width="120" height="36" as="geometry" />
        </mxCell>
        <mxCell id="KGBhsJpn1gBrKjEB66vK-32" value="" style="endArrow=blockThin;dashed=1;html=1;rounded=0;endFill=1;" edge="1" parent="1" source="KGBhsJpn1gBrKjEB66vK-12" target="KGBhsJpn1gBrKjEB66vK-31">
          <mxGeometry width="50" height="50" relative="1" as="geometry">
            <mxPoint x="532" y="523" as="sourcePoint" />
            <mxPoint x="582" y="473" as="targetPoint" />
          </mxGeometry>
        </mxCell>
        <mxCell id="KGBhsJpn1gBrKjEB66vK-33" value="include" style="edgeLabel;html=1;align=center;verticalAlign=middle;resizable=0;points=[];rotation=85;" vertex="1" connectable="0" parent="KGBhsJpn1gBrKjEB66vK-32">
          <mxGeometry x="-0.0725" y="1" relative="1" as="geometry">
            <mxPoint x="14" y="-2" as="offset" />
          </mxGeometry>
        </mxCell>
        <mxCell id="KGBhsJpn1gBrKjEB66vK-34" value="" style="endArrow=none;html=1;rounded=0;endFill=0;startArrow=blockThin;startFill=1;" edge="1" parent="1" source="KGBhsJpn1gBrKjEB66vK-35" target="KGBhsJpn1gBrKjEB66vK-12">
          <mxGeometry width="50" height="50" relative="1" as="geometry">
            <mxPoint x="532" y="523" as="sourcePoint" />
            <mxPoint x="582" y="473" as="targetPoint" />
          </mxGeometry>
        </mxCell>
        <mxCell id="KGBhsJpn1gBrKjEB66vK-35" value="Просмотр &lt;br&gt;профиля" style="ellipse;whiteSpace=wrap;html=1;" vertex="1" parent="1">
          <mxGeometry x="633" y="260" width="86" height="44" as="geometry" />
        </mxCell>
        <mxCell id="KGBhsJpn1gBrKjEB66vK-36" value="Редактирование профиля" style="ellipse;whiteSpace=wrap;html=1;" vertex="1" parent="1">
          <mxGeometry x="587" y="149" width="120" height="44" as="geometry" />
        </mxCell>
        <mxCell id="KGBhsJpn1gBrKjEB66vK-38" value="" style="endArrow=blockThin;dashed=1;html=1;rounded=0;startArrow=none;startFill=0;endFill=1;" edge="1" parent="1" source="KGBhsJpn1gBrKjEB66vK-35" target="KGBhsJpn1gBrKjEB66vK-36">
          <mxGeometry width="50" height="50" relative="1" as="geometry">
            <mxPoint x="401" y="323" as="sourcePoint" />
            <mxPoint x="451" y="273" as="targetPoint" />
          </mxGeometry>
        </mxCell>
        <mxCell id="KGBhsJpn1gBrKjEB66vK-39" value="include" style="edgeLabel;html=1;align=center;verticalAlign=middle;resizable=0;points=[];rotation=75;" vertex="1" connectable="0" parent="KGBhsJpn1gBrKjEB66vK-38">
          <mxGeometry x="-0.1559" relative="1" as="geometry">
            <mxPoint x="14" y="-7" as="offset" />
          </mxGeometry>
        </mxCell>
        <mxCell id="KGBhsJpn1gBrKjEB66vK-40" value="Изменить ФИО" style="ellipse;whiteSpace=wrap;html=1;" vertex="1" parent="1">
          <mxGeometry x="782" y="119.5" width="115" height="55" as="geometry" />
        </mxCell>
        <mxCell id="KGBhsJpn1gBrKjEB66vK-41" value="" style="endArrow=blockThin;dashed=1;html=1;rounded=0;endFill=1;" edge="1" parent="1" source="KGBhsJpn1gBrKjEB66vK-36" target="KGBhsJpn1gBrKjEB66vK-40">
          <mxGeometry width="50" height="50" relative="1" as="geometry">
            <mxPoint x="401" y="323" as="sourcePoint" />
            <mxPoint x="451" y="273" as="targetPoint" />
          </mxGeometry>
        </mxCell>
        <mxCell id="KGBhsJpn1gBrKjEB66vK-42" value="include" style="edgeLabel;html=1;align=center;verticalAlign=middle;resizable=0;points=[];rotation=0;" vertex="1" connectable="0" parent="KGBhsJpn1gBrKjEB66vK-41">
          <mxGeometry x="0.3487" y="-2" relative="1" as="geometry">
            <mxPoint x="-19" y="8" as="offset" />
          </mxGeometry>
        </mxCell>
        <mxCell id="KGBhsJpn1gBrKjEB66vK-43" value="Изменение публикаций" style="ellipse;whiteSpace=wrap;html=1;" vertex="1" parent="1">
          <mxGeometry x="676" y="596" width="120" height="38" as="geometry" />
        </mxCell>
        <mxCell id="KGBhsJpn1gBrKjEB66vK-46" value="Удаление публикации" style="ellipse;whiteSpace=wrap;html=1;" vertex="1" parent="1">
          <mxGeometry x="746" y="707" width="120" height="35" as="geometry" />
        </mxCell>
        <mxCell id="KGBhsJpn1gBrKjEB66vK-47" value="" style="endArrow=none;dashed=1;html=1;rounded=0;startArrow=blockThin;startFill=1;" edge="1" parent="1" source="KGBhsJpn1gBrKjEB66vK-43" target="KGBhsJpn1gBrKjEB66vK-46">
          <mxGeometry width="50" height="50" relative="1" as="geometry">
            <mxPoint x="599" y="605.5" as="sourcePoint" />
            <mxPoint x="649" y="555.5" as="targetPoint" />
          </mxGeometry>
        </mxCell>
        <mxCell id="KGBhsJpn1gBrKjEB66vK-48" value="extend" style="edgeLabel;html=1;align=center;verticalAlign=middle;resizable=0;points=[];rotation=60;" vertex="1" connectable="0" parent="KGBhsJpn1gBrKjEB66vK-47">
          <mxGeometry x="0.2466" y="1" relative="1" as="geometry">
            <mxPoint x="5" y="-12" as="offset" />
          </mxGeometry>
        </mxCell>
        <mxCell id="KGBhsJpn1gBrKjEB66vK-49" value="Редактировать содержимое" style="ellipse;whiteSpace=wrap;html=1;" vertex="1" parent="1">
          <mxGeometry x="601" y="707" width="120" height="46" as="geometry" />
        </mxCell>
        <mxCell id="KGBhsJpn1gBrKjEB66vK-51" value="" style="endArrow=none;dashed=1;html=1;rounded=0;startArrow=blockThin;startFill=1;" edge="1" parent="1" source="KGBhsJpn1gBrKjEB66vK-49" target="KGBhsJpn1gBrKjEB66vK-43">
          <mxGeometry width="50" height="50" relative="1" as="geometry">
            <mxPoint x="599" y="605.5" as="sourcePoint" />
            <mxPoint x="649" y="555.5" as="targetPoint" />
          </mxGeometry>
        </mxCell>
        <mxCell id="KGBhsJpn1gBrKjEB66vK-52" value="include" style="edgeLabel;html=1;align=center;verticalAlign=middle;resizable=0;points=[];rotation=-60;" vertex="1" connectable="0" parent="KGBhsJpn1gBrKjEB66vK-51">
          <mxGeometry x="0.2312" y="-2" relative="1" as="geometry">
            <mxPoint x="-21" y="-3" as="offset" />
          </mxGeometry>
        </mxCell>
        <mxCell id="KGBhsJpn1gBrKjEB66vK-53" value="Добавить публикацию" style="ellipse;whiteSpace=wrap;html=1;" vertex="1" parent="1">
          <mxGeometry x="613" y="369" width="120" height="47" as="geometry" />
        </mxCell>
        <mxCell id="KGBhsJpn1gBrKjEB66vK-55" value="Настроить предпочтения" style="ellipse;whiteSpace=wrap;html=1;" vertex="1" parent="1">
          <mxGeometry x="402" y="137" width="120" height="42" as="geometry" />
        </mxCell>
        <mxCell id="KGBhsJpn1gBrKjEB66vK-56" value="" style="endArrow=blockThin;dashed=1;html=1;rounded=0;endFill=1;" edge="1" parent="1" source="KGBhsJpn1gBrKjEB66vK-36" target="KGBhsJpn1gBrKjEB66vK-55">
          <mxGeometry width="50" height="50" relative="1" as="geometry">
            <mxPoint x="521" y="423" as="sourcePoint" />
            <mxPoint x="571" y="373" as="targetPoint" />
          </mxGeometry>
        </mxCell>
        <mxCell id="KGBhsJpn1gBrKjEB66vK-57" value="include" style="edgeLabel;html=1;align=center;verticalAlign=middle;resizable=0;points=[];rotation=5;" vertex="1" connectable="0" parent="KGBhsJpn1gBrKjEB66vK-56">
          <mxGeometry x="0.3554" y="1" relative="1" as="geometry">
            <mxPoint x="14" y="4" as="offset" />
          </mxGeometry>
        </mxCell>
        <mxCell id="KGBhsJpn1gBrKjEB66vK-60" value="Просмотр избранного" style="ellipse;whiteSpace=wrap;html=1;" vertex="1" parent="1">
          <mxGeometry x="382" y="225" width="98" height="44" as="geometry" />
        </mxCell>
        <mxCell id="KGBhsJpn1gBrKjEB66vK-61" value="" style="endArrow=none;html=1;rounded=0;" edge="1" parent="1" source="KGBhsJpn1gBrKjEB66vK-43" target="KGBhsJpn1gBrKjEB66vK-3">
          <mxGeometry width="50" height="50" relative="1" as="geometry">
            <mxPoint x="521" y="423" as="sourcePoint" />
            <mxPoint x="571" y="373" as="targetPoint" />
          </mxGeometry>
        </mxCell>
        <mxCell id="KGBhsJpn1gBrKjEB66vK-64" value="" style="endArrow=none;dashed=1;html=1;rounded=0;startArrow=blockThin;startFill=1;" edge="1" parent="1" source="KGBhsJpn1gBrKjEB66vK-60" target="KGBhsJpn1gBrKjEB66vK-35">
          <mxGeometry width="50" height="50" relative="1" as="geometry">
            <mxPoint x="521" y="423" as="sourcePoint" />
            <mxPoint x="571" y="373" as="targetPoint" />
          </mxGeometry>
        </mxCell>
        <mxCell id="KGBhsJpn1gBrKjEB66vK-65" value="include" style="edgeLabel;html=1;align=center;verticalAlign=middle;resizable=0;points=[];rotation=15;" vertex="1" connectable="0" parent="KGBhsJpn1gBrKjEB66vK-64">
          <mxGeometry x="0.0304" y="5" relative="1" as="geometry">
            <mxPoint as="offset" />
          </mxGeometry>
        </mxCell>
        <mxCell id="KGBhsJpn1gBrKjEB66vK-67" value="" style="endArrow=none;html=1;rounded=0;" edge="1" parent="1" source="KGBhsJpn1gBrKjEB66vK-53" target="KGBhsJpn1gBrKjEB66vK-3">
          <mxGeometry width="50" height="50" relative="1" as="geometry">
            <mxPoint x="601" y="459" as="sourcePoint" />
            <mxPoint x="651" y="409" as="targetPoint" />
          </mxGeometry>
        </mxCell>
        <mxCell id="KGBhsJpn1gBrKjEB66vK-68" value="Выбрать &lt;br&gt;кухню" style="ellipse;whiteSpace=wrap;html=1;" vertex="1" parent="1">
          <mxGeometry x="529" y="306" width="77" height="38" as="geometry" />
        </mxCell>
        <mxCell id="KGBhsJpn1gBrKjEB66vK-69" value="" style="endArrow=blockThin;dashed=1;html=1;rounded=0;startArrow=none;startFill=0;endFill=1;" edge="1" parent="1" source="KGBhsJpn1gBrKjEB66vK-53" target="KGBhsJpn1gBrKjEB66vK-68">
          <mxGeometry width="50" height="50" relative="1" as="geometry">
            <mxPoint x="601" y="459" as="sourcePoint" />
            <mxPoint x="651" y="409" as="targetPoint" />
          </mxGeometry>
        </mxCell>
        <mxCell id="KGBhsJpn1gBrKjEB66vK-70" value="include" style="edgeLabel;html=1;align=center;verticalAlign=middle;resizable=0;points=[];rotation=30;" vertex="1" connectable="0" parent="KGBhsJpn1gBrKjEB66vK-69">
          <mxGeometry x="-0.0695" y="-3" relative="1" as="geometry">
            <mxPoint as="offset" />
          </mxGeometry>
        </mxCell>
        <mxCell id="KGBhsJpn1gBrKjEB66vK-71" value="Выбрать&lt;br&gt;&amp;nbsp;диеты" style="ellipse;whiteSpace=wrap;html=1;" vertex="1" parent="1">
          <mxGeometry x="438" y="331" width="71" height="38" as="geometry" />
        </mxCell>
        <mxCell id="KGBhsJpn1gBrKjEB66vK-72" value="" style="endArrow=none;dashed=1;html=1;rounded=0;endFill=0;startArrow=blockThin;startFill=1;" edge="1" parent="1" source="KGBhsJpn1gBrKjEB66vK-71" target="KGBhsJpn1gBrKjEB66vK-53">
          <mxGeometry width="50" height="50" relative="1" as="geometry">
            <mxPoint x="480" y="459" as="sourcePoint" />
            <mxPoint x="530" y="409" as="targetPoint" />
          </mxGeometry>
        </mxCell>
        <mxCell id="KGBhsJpn1gBrKjEB66vK-73" value="include" style="edgeLabel;html=1;align=center;verticalAlign=middle;resizable=0;points=[];rotation=15;" vertex="1" connectable="0" parent="KGBhsJpn1gBrKjEB66vK-72">
          <mxGeometry x="0.2134" y="3" relative="1" as="geometry">
            <mxPoint as="offset" />
          </mxGeometry>
        </mxCell>
        <mxCell id="KGBhsJpn1gBrKjEB66vK-74" value="Выбрать ингредиенты" style="ellipse;whiteSpace=wrap;html=1;" vertex="1" parent="1">
          <mxGeometry x="418" y="388" width="96" height="40" as="geometry" />
        </mxCell>
        <mxCell id="KGBhsJpn1gBrKjEB66vK-75" value="" style="endArrow=none;dashed=1;html=1;rounded=0;startArrow=blockThin;startFill=1;" edge="1" parent="1" source="KGBhsJpn1gBrKjEB66vK-74" target="KGBhsJpn1gBrKjEB66vK-53">
          <mxGeometry width="50" height="50" relative="1" as="geometry">
            <mxPoint x="480" y="459" as="sourcePoint" />
            <mxPoint x="530" y="409" as="targetPoint" />
          </mxGeometry>
        </mxCell>
        <mxCell id="KGBhsJpn1gBrKjEB66vK-76" value="include" style="edgeLabel;html=1;align=center;verticalAlign=middle;resizable=0;points=[];" vertex="1" connectable="0" parent="KGBhsJpn1gBrKjEB66vK-75">
          <mxGeometry x="0.199" y="-2" relative="1" as="geometry">
            <mxPoint as="offset" />
          </mxGeometry>
        </mxCell>
        <mxCell id="KGBhsJpn1gBrKjEB66vK-77" value="Добавить описание и фото" style="ellipse;whiteSpace=wrap;html=1;" vertex="1" parent="1">
          <mxGeometry x="480" y="447" width="107" height="51" as="geometry" />
        </mxCell>
        <mxCell id="KGBhsJpn1gBrKjEB66vK-78" value="" style="endArrow=none;dashed=1;html=1;rounded=0;startArrow=blockThin;startFill=1;" edge="1" parent="1" source="KGBhsJpn1gBrKjEB66vK-77" target="KGBhsJpn1gBrKjEB66vK-53">
          <mxGeometry width="50" height="50" relative="1" as="geometry">
            <mxPoint x="480" y="459" as="sourcePoint" />
            <mxPoint x="530" y="409" as="targetPoint" />
          </mxGeometry>
        </mxCell>
        <mxCell id="KGBhsJpn1gBrKjEB66vK-79" value="include" style="edgeLabel;html=1;align=center;verticalAlign=middle;resizable=0;points=[];rotation=-30;" vertex="1" connectable="0" parent="KGBhsJpn1gBrKjEB66vK-78">
          <mxGeometry x="0.3268" y="-1" relative="1" as="geometry">
            <mxPoint as="offset" />
          </mxGeometry>
        </mxCell>
        <mxCell id="KGBhsJpn1gBrKjEB66vK-80" value="Поиск рецепта" style="ellipse;whiteSpace=wrap;html=1;" vertex="1" parent="1">
          <mxGeometry x="655" y="498" width="71" height="32" as="geometry" />
        </mxCell>
        <mxCell id="KGBhsJpn1gBrKjEB66vK-81" value="" style="endArrow=none;html=1;rounded=0;" edge="1" parent="1" source="KGBhsJpn1gBrKjEB66vK-80" target="KGBhsJpn1gBrKjEB66vK-3">
          <mxGeometry width="50" height="50" relative="1" as="geometry">
            <mxPoint x="480" y="559" as="sourcePoint" />
            <mxPoint x="530" y="509" as="targetPoint" />
          </mxGeometry>
        </mxCell>
        <mxCell id="KGBhsJpn1gBrKjEB66vK-82" value="Настройка поиска" style="ellipse;whiteSpace=wrap;html=1;" vertex="1" parent="1">
          <mxGeometry x="564" y="588" width="85" height="46" as="geometry" />
        </mxCell>
        <mxCell id="KGBhsJpn1gBrKjEB66vK-83" value="" style="endArrow=none;dashed=1;html=1;rounded=0;startArrow=blockThin;startFill=1;" edge="1" parent="1" source="KGBhsJpn1gBrKjEB66vK-82" target="KGBhsJpn1gBrKjEB66vK-80">
          <mxGeometry width="50" height="50" relative="1" as="geometry">
            <mxPoint x="480" y="559" as="sourcePoint" />
            <mxPoint x="530" y="509" as="targetPoint" />
            <Array as="points" />
          </mxGeometry>
        </mxCell>
        <mxCell id="KGBhsJpn1gBrKjEB66vK-84" value="include" style="edgeLabel;html=1;align=center;verticalAlign=middle;resizable=0;points=[];rotation=-45;" vertex="1" connectable="0" parent="KGBhsJpn1gBrKjEB66vK-83">
          <mxGeometry x="0.1351" y="2" relative="1" as="geometry">
            <mxPoint as="offset" />
          </mxGeometry>
        </mxCell>
        <mxCell id="KGBhsJpn1gBrKjEB66vK-85" value="Поиск по названию" style="ellipse;whiteSpace=wrap;html=1;" vertex="1" parent="1">
          <mxGeometry x="475" y="676" width="83" height="37" as="geometry" />
        </mxCell>
        <mxCell id="KGBhsJpn1gBrKjEB66vK-86" value="" style="endArrow=none;dashed=1;html=1;rounded=0;startArrow=blockThin;startFill=1;" edge="1" parent="1" source="KGBhsJpn1gBrKjEB66vK-85" target="KGBhsJpn1gBrKjEB66vK-82">
          <mxGeometry width="50" height="50" relative="1" as="geometry">
            <mxPoint x="480" y="559" as="sourcePoint" />
            <mxPoint x="530" y="509" as="targetPoint" />
          </mxGeometry>
        </mxCell>
        <mxCell id="KGBhsJpn1gBrKjEB66vK-87" value="include" style="edgeLabel;html=1;align=center;verticalAlign=middle;resizable=0;points=[];rotation=-45;" vertex="1" connectable="0" parent="KGBhsJpn1gBrKjEB66vK-86">
          <mxGeometry x="0.2408" y="-3" relative="1" as="geometry">
            <mxPoint as="offset" />
          </mxGeometry>
        </mxCell>
        <mxCell id="KGBhsJpn1gBrKjEB66vK-88" value="Поиск по фильтрам" style="ellipse;whiteSpace=wrap;html=1;" vertex="1" parent="1">
          <mxGeometry x="423" y="608" width="78" height="41" as="geometry" />
        </mxCell>
        <mxCell id="KGBhsJpn1gBrKjEB66vK-89" value="" style="endArrow=none;dashed=1;html=1;rounded=0;startArrow=blockThin;startFill=1;" edge="1" parent="1" source="KGBhsJpn1gBrKjEB66vK-88" target="KGBhsJpn1gBrKjEB66vK-82">
          <mxGeometry width="50" height="50" relative="1" as="geometry">
            <mxPoint x="480" y="559" as="sourcePoint" />
            <mxPoint x="530" y="509" as="targetPoint" />
          </mxGeometry>
        </mxCell>
        <mxCell id="KGBhsJpn1gBrKjEB66vK-90" value="include" style="edgeLabel;html=1;align=center;verticalAlign=middle;resizable=0;points=[];" vertex="1" connectable="0" parent="KGBhsJpn1gBrKjEB66vK-89">
          <mxGeometry x="0.1267" y="-1" relative="1" as="geometry">
            <mxPoint as="offset" />
          </mxGeometry>
        </mxCell>
        <mxCell id="KGBhsJpn1gBrKjEB66vK-91" value="Фильтр по кухне" style="ellipse;whiteSpace=wrap;html=1;" vertex="1" parent="1">
          <mxGeometry x="352" y="697" width="90" height="41" as="geometry" />
        </mxCell>
        <mxCell id="KGBhsJpn1gBrKjEB66vK-92" value="" style="endArrow=none;dashed=1;html=1;rounded=0;startArrow=blockThin;startFill=1;" edge="1" parent="1" source="KGBhsJpn1gBrKjEB66vK-91">
          <mxGeometry width="50" height="50" relative="1" as="geometry">
            <mxPoint x="480" y="559" as="sourcePoint" />
            <mxPoint x="448" y="648" as="targetPoint" />
          </mxGeometry>
        </mxCell>
        <mxCell id="KGBhsJpn1gBrKjEB66vK-93" value="include" style="edgeLabel;html=1;align=center;verticalAlign=middle;resizable=0;points=[];rotation=-60;" vertex="1" connectable="0" parent="KGBhsJpn1gBrKjEB66vK-92">
          <mxGeometry x="0.4775" y="-2" relative="1" as="geometry">
            <mxPoint x="-2" y="14" as="offset" />
          </mxGeometry>
        </mxCell>
        <mxCell id="KGBhsJpn1gBrKjEB66vK-94" value="Фильтр по ингредиентам" style="ellipse;whiteSpace=wrap;html=1;" vertex="1" parent="1">
          <mxGeometry x="254" y="641" width="102" height="40" as="geometry" />
        </mxCell>
        <mxCell id="KGBhsJpn1gBrKjEB66vK-95" value="" style="endArrow=none;dashed=1;html=1;rounded=0;startArrow=blockThin;startFill=1;" edge="1" parent="1" source="KGBhsJpn1gBrKjEB66vK-94" target="KGBhsJpn1gBrKjEB66vK-88">
          <mxGeometry width="50" height="50" relative="1" as="geometry">
            <mxPoint x="480" y="559" as="sourcePoint" />
            <mxPoint x="530" y="509" as="targetPoint" />
          </mxGeometry>
        </mxCell>
        <mxCell id="KGBhsJpn1gBrKjEB66vK-96" value="include" style="edgeLabel;html=1;align=center;verticalAlign=middle;resizable=0;points=[];rotation=-10;" vertex="1" connectable="0" parent="KGBhsJpn1gBrKjEB66vK-95">
          <mxGeometry x="0.0242" relative="1" as="geometry">
            <mxPoint as="offset" />
          </mxGeometry>
        </mxCell>
        <mxCell id="KGBhsJpn1gBrKjEB66vK-97" value="" style="endArrow=blockThin;html=1;rounded=0;startArrow=none;startFill=0;endFill=1;" edge="1" parent="1" source="KGBhsJpn1gBrKjEB66vK-2" target="KGBhsJpn1gBrKjEB66vK-3">
          <mxGeometry width="50" height="50" relative="1" as="geometry">
            <mxPoint x="455" y="796" as="sourcePoint" />
            <mxPoint x="505" y="746" as="targetPoint" />
          </mxGeometry>
        </mxCell>
        <mxCell id="KGBhsJpn1gBrKjEB66vK-99" value="Просмотр рецепта" style="ellipse;whiteSpace=wrap;html=1;" vertex="1" parent="1">
          <mxGeometry x="270" y="502" width="91" height="48" as="geometry" />
        </mxCell>
        <mxCell id="KGBhsJpn1gBrKjEB66vK-100" value="" style="endArrow=none;html=1;rounded=0;startArrow=blockThin;startFill=1;" edge="1" parent="1" source="KGBhsJpn1gBrKjEB66vK-99" target="KGBhsJpn1gBrKjEB66vK-82">
          <mxGeometry width="50" height="50" relative="1" as="geometry">
            <mxPoint x="450" y="561" as="sourcePoint" />
            <mxPoint x="500" y="511" as="targetPoint" />
          </mxGeometry>
        </mxCell>
        <mxCell id="KGBhsJpn1gBrKjEB66vK-101" value="" style="endArrow=none;html=1;rounded=0;startArrow=blockThin;startFill=1;" edge="1" parent="1" source="KGBhsJpn1gBrKjEB66vK-99" target="KGBhsJpn1gBrKjEB66vK-80">
          <mxGeometry width="50" height="50" relative="1" as="geometry">
            <mxPoint x="450" y="561" as="sourcePoint" />
            <mxPoint x="500" y="511" as="targetPoint" />
          </mxGeometry>
        </mxCell>
        <mxCell id="KGBhsJpn1gBrKjEB66vK-103" value="" style="endArrow=none;html=1;rounded=0;startArrow=blockThin;startFill=1;" edge="1" parent="1" source="KGBhsJpn1gBrKjEB66vK-99" target="KGBhsJpn1gBrKjEB66vK-60">
          <mxGeometry width="50" height="50" relative="1" as="geometry">
            <mxPoint x="450" y="361" as="sourcePoint" />
            <mxPoint x="500" y="311" as="targetPoint" />
          </mxGeometry>
        </mxCell>
        <mxCell id="KGBhsJpn1gBrKjEB66vK-104" value="Комментирование" style="ellipse;whiteSpace=wrap;html=1;" vertex="1" parent="1">
          <mxGeometry x="120" y="443" width="120" height="40" as="geometry" />
        </mxCell>
        <mxCell id="KGBhsJpn1gBrKjEB66vK-105" value="" style="endArrow=blockThin;dashed=1;html=1;rounded=0;endFill=1;" edge="1" parent="1" source="KGBhsJpn1gBrKjEB66vK-104" target="KGBhsJpn1gBrKjEB66vK-99">
          <mxGeometry width="50" height="50" relative="1" as="geometry">
            <mxPoint x="309" y="461" as="sourcePoint" />
            <mxPoint x="359" y="411" as="targetPoint" />
          </mxGeometry>
        </mxCell>
        <mxCell id="KGBhsJpn1gBrKjEB66vK-106" value="extend" style="edgeLabel;html=1;align=center;verticalAlign=middle;resizable=0;points=[];rotation=15;" vertex="1" connectable="0" parent="KGBhsJpn1gBrKjEB66vK-105">
          <mxGeometry x="-0.2435" y="-2" relative="1" as="geometry">
            <mxPoint as="offset" />
          </mxGeometry>
        </mxCell>
        <mxCell id="KGBhsJpn1gBrKjEB66vK-107" value="Редактирование комментария" style="ellipse;whiteSpace=wrap;html=1;" vertex="1" parent="1">
          <mxGeometry x="46" y="530" width="120" height="46" as="geometry" />
        </mxCell>
        <mxCell id="KGBhsJpn1gBrKjEB66vK-108" value="" style="endArrow=none;dashed=1;html=1;rounded=0;endFill=0;startArrow=blockThin;startFill=1;" edge="1" parent="1" source="KGBhsJpn1gBrKjEB66vK-107" target="KGBhsJpn1gBrKjEB66vK-104">
          <mxGeometry width="50" height="50" relative="1" as="geometry">
            <mxPoint x="309" y="561" as="sourcePoint" />
            <mxPoint x="359" y="511" as="targetPoint" />
          </mxGeometry>
        </mxCell>
        <mxCell id="KGBhsJpn1gBrKjEB66vK-109" value="include" style="edgeLabel;html=1;align=center;verticalAlign=middle;resizable=0;points=[];rotation=-45;" vertex="1" connectable="0" parent="KGBhsJpn1gBrKjEB66vK-108">
          <mxGeometry x="0.1458" relative="1" as="geometry">
            <mxPoint as="offset" />
          </mxGeometry>
        </mxCell>
        <mxCell id="KGBhsJpn1gBrKjEB66vK-110" value="Редактировать содержимое" style="ellipse;whiteSpace=wrap;html=1;" vertex="1" parent="1">
          <mxGeometry x="133.5" y="631" width="107" height="45" as="geometry" />
        </mxCell>
        <mxCell id="KGBhsJpn1gBrKjEB66vK-111" value="" style="endArrow=none;dashed=1;html=1;rounded=0;endFill=0;startArrow=blockThin;startFill=1;" edge="1" parent="1" source="KGBhsJpn1gBrKjEB66vK-110" target="KGBhsJpn1gBrKjEB66vK-107">
          <mxGeometry width="50" height="50" relative="1" as="geometry">
            <mxPoint x="309" y="561" as="sourcePoint" />
            <mxPoint x="359" y="511" as="targetPoint" />
          </mxGeometry>
        </mxCell>
        <mxCell id="KGBhsJpn1gBrKjEB66vK-112" value="include" style="edgeLabel;html=1;align=center;verticalAlign=middle;resizable=0;points=[];rotation=45;" vertex="1" connectable="0" parent="KGBhsJpn1gBrKjEB66vK-111">
          <mxGeometry x="0.3464" y="-2" relative="1" as="geometry">
            <mxPoint as="offset" />
          </mxGeometry>
        </mxCell>
        <mxCell id="KGBhsJpn1gBrKjEB66vK-113" value="Удаление" style="ellipse;whiteSpace=wrap;html=1;" vertex="1" parent="1">
          <mxGeometry x="6" y="634" width="82" height="38" as="geometry" />
        </mxCell>
        <mxCell id="KGBhsJpn1gBrKjEB66vK-114" value="" style="endArrow=blockThin;dashed=1;html=1;rounded=0;startArrow=none;startFill=0;endFill=1;" edge="1" parent="1" source="KGBhsJpn1gBrKjEB66vK-113" target="KGBhsJpn1gBrKjEB66vK-107">
          <mxGeometry width="50" height="50" relative="1" as="geometry">
            <mxPoint x="309" y="561" as="sourcePoint" />
            <mxPoint x="359" y="511" as="targetPoint" />
          </mxGeometry>
        </mxCell>
        <mxCell id="KGBhsJpn1gBrKjEB66vK-115" value="extend" style="edgeLabel;html=1;align=center;verticalAlign=middle;resizable=0;points=[];rotation=-60;" vertex="1" connectable="0" parent="KGBhsJpn1gBrKjEB66vK-114">
          <mxGeometry x="0.3028" y="1" relative="1" as="geometry">
            <mxPoint x="-10" y="13" as="offset" />
          </mxGeometry>
        </mxCell>
        <mxCell id="KGBhsJpn1gBrKjEB66vK-117" value="Администрирование сайта" style="ellipse;whiteSpace=wrap;html=1;" vertex="1" parent="1">
          <mxGeometry x="716" y="908" width="120" height="50" as="geometry" />
        </mxCell>
        <mxCell id="KGBhsJpn1gBrKjEB66vK-119" value="" style="endArrow=none;html=1;rounded=0;" edge="1" parent="1" source="KGBhsJpn1gBrKjEB66vK-117" target="KGBhsJpn1gBrKjEB66vK-2">
          <mxGeometry width="50" height="50" relative="1" as="geometry">
            <mxPoint x="495" y="907" as="sourcePoint" />
            <mxPoint x="545" y="857" as="targetPoint" />
          </mxGeometry>
        </mxCell>
        <mxCell id="KGBhsJpn1gBrKjEB66vK-120" value="Получение данных" style="ellipse;whiteSpace=wrap;html=1;" vertex="1" parent="1">
          <mxGeometry x="595" y="824" width="90" height="47" as="geometry" />
        </mxCell>
        <mxCell id="KGBhsJpn1gBrKjEB66vK-121" value="" style="endArrow=blockThin;dashed=1;html=1;rounded=0;startArrow=none;startFill=0;endFill=1;" edge="1" parent="1" source="KGBhsJpn1gBrKjEB66vK-117" target="KGBhsJpn1gBrKjEB66vK-120">
          <mxGeometry width="50" height="50" relative="1" as="geometry">
            <mxPoint x="495" y="907" as="sourcePoint" />
            <mxPoint x="545" y="857" as="targetPoint" />
          </mxGeometry>
        </mxCell>
        <mxCell id="KGBhsJpn1gBrKjEB66vK-122" value="include" style="edgeLabel;html=1;align=center;verticalAlign=middle;resizable=0;points=[];rotation=40;" vertex="1" connectable="0" parent="KGBhsJpn1gBrKjEB66vK-121">
          <mxGeometry x="-0.153" y="-6" relative="1" as="geometry">
            <mxPoint as="offset" />
          </mxGeometry>
        </mxCell>
        <mxCell id="KGBhsJpn1gBrKjEB66vK-124" value="Просмотр статистики" style="ellipse;whiteSpace=wrap;html=1;" vertex="1" parent="1">
          <mxGeometry x="475.5" y="742" width="82" height="47" as="geometry" />
        </mxCell>
        <mxCell id="KGBhsJpn1gBrKjEB66vK-125" value="Получение информации о пользователях" style="ellipse;whiteSpace=wrap;html=1;" vertex="1" parent="1">
          <mxGeometry x="340" y="791" width="120" height="50" as="geometry" />
        </mxCell>
        <mxCell id="KGBhsJpn1gBrKjEB66vK-126" value="Обработка жалоб" style="ellipse;whiteSpace=wrap;html=1;" vertex="1" parent="1">
          <mxGeometry x="698" y="768" width="93" height="44" as="geometry" />
        </mxCell>
        <mxCell id="KGBhsJpn1gBrKjEB66vK-129" value="" style="endArrow=blockThin;dashed=1;html=1;rounded=0;endFill=1;" edge="1" parent="1" source="KGBhsJpn1gBrKjEB66vK-120" target="KGBhsJpn1gBrKjEB66vK-125">
          <mxGeometry width="50" height="50" relative="1" as="geometry">
            <mxPoint x="495" y="1007" as="sourcePoint" />
            <mxPoint x="545" y="957" as="targetPoint" />
          </mxGeometry>
        </mxCell>
        <mxCell id="KGBhsJpn1gBrKjEB66vK-140" value="include" style="edgeLabel;html=1;align=center;verticalAlign=middle;resizable=0;points=[];rotation=10;" vertex="1" connectable="0" parent="KGBhsJpn1gBrKjEB66vK-129">
          <mxGeometry x="-0.1756" relative="1" as="geometry">
            <mxPoint as="offset" />
          </mxGeometry>
        </mxCell>
        <mxCell id="KGBhsJpn1gBrKjEB66vK-130" value="" style="endArrow=blockThin;dashed=1;html=1;rounded=0;startArrow=none;startFill=0;endFill=1;" edge="1" parent="1" source="KGBhsJpn1gBrKjEB66vK-120" target="KGBhsJpn1gBrKjEB66vK-124">
          <mxGeometry width="50" height="50" relative="1" as="geometry">
            <mxPoint x="495" y="1007" as="sourcePoint" />
            <mxPoint x="545" y="957" as="targetPoint" />
          </mxGeometry>
        </mxCell>
        <mxCell id="KGBhsJpn1gBrKjEB66vK-139" value="include" style="edgeLabel;html=1;align=center;verticalAlign=middle;resizable=0;points=[];rotation=35;" vertex="1" connectable="0" parent="KGBhsJpn1gBrKjEB66vK-130">
          <mxGeometry x="0.0817" y="-2" relative="1" as="geometry">
            <mxPoint as="offset" />
          </mxGeometry>
        </mxCell>
        <mxCell id="KGBhsJpn1gBrKjEB66vK-131" value="" style="endArrow=blockThin;dashed=1;html=1;rounded=0;endFill=1;" edge="1" parent="1" source="KGBhsJpn1gBrKjEB66vK-120" target="KGBhsJpn1gBrKjEB66vK-126">
          <mxGeometry width="50" height="50" relative="1" as="geometry">
            <mxPoint x="645" y="896" as="sourcePoint" />
            <mxPoint x="545" y="957" as="targetPoint" />
          </mxGeometry>
        </mxCell>
        <mxCell id="KGBhsJpn1gBrKjEB66vK-138" value="include" style="edgeLabel;html=1;align=center;verticalAlign=middle;resizable=0;points=[];rotation=-35;" vertex="1" connectable="0" parent="KGBhsJpn1gBrKjEB66vK-131">
          <mxGeometry x="-0.3818" y="3" relative="1" as="geometry">
            <mxPoint as="offset" />
          </mxGeometry>
        </mxCell>
        <mxCell id="KGBhsJpn1gBrKjEB66vK-133" value="" style="endArrow=none;dashed=1;html=1;rounded=0;startArrow=blockThin;startFill=1;" edge="1" parent="1" source="KGBhsJpn1gBrKjEB66vK-123" target="KGBhsJpn1gBrKjEB66vK-117">
          <mxGeometry width="50" height="50" relative="1" as="geometry">
            <mxPoint x="495" y="1007" as="sourcePoint" />
            <mxPoint x="545" y="957" as="targetPoint" />
          </mxGeometry>
        </mxCell>
        <mxCell id="KGBhsJpn1gBrKjEB66vK-135" value="include" style="edgeLabel;html=1;align=center;verticalAlign=middle;resizable=0;points=[];rotation=-5;" vertex="1" connectable="0" parent="KGBhsJpn1gBrKjEB66vK-133">
          <mxGeometry x="0.366" y="1" relative="1" as="geometry">
            <mxPoint x="-12" y="-1" as="offset" />
          </mxGeometry>
        </mxCell>
        <mxCell id="KGBhsJpn1gBrKjEB66vK-142" value="" style="swimlane;startSize=0;" vertex="1" parent="1">
          <mxGeometry x="-49" y="112" width="964" height="880" as="geometry" />
        </mxCell>
        <mxCell id="KGBhsJpn1gBrKjEB66vK-123" value="Редактирование данных" style="ellipse;whiteSpace=wrap;html=1;" vertex="1" parent="KGBhsJpn1gBrKjEB66vK-142">
          <mxGeometry x="567" y="784" width="120" height="50" as="geometry" />
        </mxCell>
        <mxCell id="KGBhsJpn1gBrKjEB66vK-127" value="Удаление чужих комментариев и рецептов" style="ellipse;whiteSpace=wrap;html=1;" vertex="1" parent="KGBhsJpn1gBrKjEB66vK-142">
          <mxGeometry x="285" y="729" width="120" height="64" as="geometry" />
        </mxCell>
        <mxCell id="KGBhsJpn1gBrKjEB66vK-132" value="" style="endArrow=blockThin;dashed=1;html=1;rounded=0;endFill=1;" edge="1" parent="KGBhsJpn1gBrKjEB66vK-142" source="KGBhsJpn1gBrKjEB66vK-127" target="KGBhsJpn1gBrKjEB66vK-123">
          <mxGeometry width="50" height="50" relative="1" as="geometry">
            <mxPoint x="544" y="895" as="sourcePoint" />
            <mxPoint x="594" y="845" as="targetPoint" />
          </mxGeometry>
        </mxCell>
        <mxCell id="KGBhsJpn1gBrKjEB66vK-136" value="extend" style="edgeLabel;html=1;align=center;verticalAlign=middle;resizable=0;points=[];rotation=10;" vertex="1" connectable="0" parent="KGBhsJpn1gBrKjEB66vK-132">
          <mxGeometry x="-0.0133" y="2" relative="1" as="geometry">
            <mxPoint x="1" as="offset" />
          </mxGeometry>
        </mxCell>
        <mxCell id="KGBhsJpn1gBrKjEB66vK-128" value="Редактирование чужих рецептов" style="ellipse;whiteSpace=wrap;html=1;" vertex="1" parent="KGBhsJpn1gBrKjEB66vK-142">
          <mxGeometry x="380" y="812" width="120" height="56" as="geometry" />
        </mxCell>
        <mxCell id="KGBhsJpn1gBrKjEB66vK-134" value="" style="endArrow=none;dashed=1;html=1;rounded=0;startArrow=blockThin;startFill=1;" edge="1" parent="KGBhsJpn1gBrKjEB66vK-142" source="KGBhsJpn1gBrKjEB66vK-128" target="KGBhsJpn1gBrKjEB66vK-123">
          <mxGeometry width="50" height="50" relative="1" as="geometry">
            <mxPoint x="544" y="895" as="sourcePoint" />
            <mxPoint x="594" y="845" as="targetPoint" />
          </mxGeometry>
        </mxCell>
        <mxCell id="KGBhsJpn1gBrKjEB66vK-137" value="include" style="edgeLabel;html=1;align=center;verticalAlign=middle;resizable=0;points=[];rotation=-15;" vertex="1" connectable="0" parent="KGBhsJpn1gBrKjEB66vK-134">
          <mxGeometry x="0.5795" y="-3" relative="1" as="geometry">
            <mxPoint x="-27" y="13" as="offset" />
          </mxGeometry>
        </mxCell>
      </root>
    </mxGraphModel>
  </diagram>
</mxfile>
